HIERARCHY
ROOT hip
{
  OFFSET 0 0 0
  CHANNELS 6 Xposition Yposition Zposition Zrotation Yrotation Xrotation
  JOINT abdomen
  {
    OFFSET 0 20.6881 -0.73152
    CHANNELS 3 Zrotation Xrotation Yrotation
    JOINT chest
    {
      OFFSET 0 11.7043 -0.48768
      CHANNELS 3 Zrotation Xrotation Yrotation
      JOINT neck
      {
        OFFSET 0 22.1894 -2.19456
        CHANNELS 3 Zrotation Xrotation Yrotation
        JOINT head
        {
          OFFSET -0.24384 7.07133 1.2192
          CHANNELS 3 Zrotation Xrotation Yrotation
          JOINT leftEye
          {
            OFFSET 4.14528 8.04674 8.04672
            CHANNELS 3 Zrotation Xrotation Yrotation
            End Site
            {
              OFFSET 1 0 0
            }
          }
          JOINT rightEye
          {
            OFFSET -3.6576 8.04674 8.04672
            CHANNELS 3 Zrotation Xrotation Yrotation
            End Site
            {
              OFFSET 1 0 0
            }
          }
        }
      }
      JOINT rCollar
      {
        OFFSET -2.68224 19.2634 -4.8768
        CHANNELS 3 Zrotation Xrotation Yrotation
        JOINT rShldr
        {
          OFFSET -8.77824 -1.95073 1.46304
          CHANNELS 3 Zrotation Xrotation Yrotation
          JOINT rForeArm
          {
            OFFSET -28.1742 -1.7115 0.48768
            CHANNELS 3 Zrotation Xrotation Yrotation
            JOINT rHand
            {
              OFFSET -22.5879 0.773209 7.07136
              CHANNELS 3 Zrotation Xrotation Yrotation
              JOINT rThumb1
              {
                OFFSET -1.2192 -0.487915 3.41376
                CHANNELS 3 Zrotation Xrotation Yrotation
                JOINT rThumb2
                {
                  OFFSET -3.37035 -0.52449 3.41376
                  CHANNELS 3 Zrotation Xrotation Yrotation
                  End Site
                  {
                    OFFSET -1.78271 -1.18214 1.43049
                  }
                }
              }
              JOINT rIndex1
              {
                OFFSET -7.75947 0.938293 5.60832
                CHANNELS 3 Zrotation Xrotation Yrotation
                JOINT rIndex2
                {
                  OFFSET -2.54057 -0.884171 1.56538
                  CHANNELS 3 Zrotation Xrotation Yrotation
                  End Site
                  {
                    OFFSET -1.62519 -0.234802 1.16502
                  }
                }
              }
              JOINT rMid1
              {
                OFFSET -8.24714 1.18213 3.41376
                CHANNELS 3 Zrotation Xrotation Yrotation
                JOINT rMid2
                {
                  OFFSET -3.10165 -0.590103 1.0647
                  CHANNELS 3 Zrotation Xrotation Yrotation
                  End Site
                  {
                    OFFSET -2.48547 -0.328903 0.83742
                  }
                }
              }
              JOINT rRing1
              {
                OFFSET -8.82822 0.546677 1.51678
                CHANNELS 3 Zrotation Xrotation Yrotation
                JOINT rRing2
                {
                  OFFSET -2.60934 -0.819778 -0.0198488
                  CHANNELS 3 Zrotation Xrotation Yrotation
                  End Site
                  {
                    OFFSET -2.33842 -0.294052 0.168128
                  }
                }
              }
              JOINT rPinky1
              {
                OFFSET -8.27202 -0.0477905 -0.4584
                CHANNELS 3 Zrotation Xrotation Yrotation
                JOINT rPinky2
                {
                  OFFSET -1.82734 -0.647385 -0.700984
                  CHANNELS 3 Zrotation Xrotation Yrotation
                  End Site
                  {
                    OFFSET -1.69225 -0.51767 -0.607171
                  }
                }
              }
            }
          }
        }
      }
      JOINT lCollar
      {
        OFFSET 2.68224 19.2634 -4.8768
        CHANNELS 3 Zrotation Xrotation Yrotation
        JOINT lShldr
        {
          OFFSET 8.77824 -1.95073 1.46304
          CHANNELS 3 Zrotation Xrotation Yrotation
          JOINT lForeArm
          {
            OFFSET 28.1742 -1.7115 0.48768
            CHANNELS 3 Zrotation Xrotation Yrotation
            JOINT lHand
            {
              OFFSET 22.5879 0.773209 7.07136
              CHANNELS 3 Zrotation Xrotation Yrotation
              JOINT lThumb1
              {
                OFFSET 1.2192 -0.487915 3.41376
                CHANNELS 3 Zrotation Xrotation Yrotation
                JOINT lThumb2
                {
                  OFFSET 3.37035 -0.52449 3.41376
                  CHANNELS 3 Zrotation Xrotation Yrotation
                  End Site
                  {
                    OFFSET 1.78271 -1.18214 1.43049
                  }
                }
              }
              JOINT lIndex1
              {
                OFFSET 7.75947 0.938293 5.60832
                CHANNELS 3 Zrotation Xrotation Yrotation
                JOINT lIndex2
                {
                  OFFSET 2.54057 -0.884171 1.56538
                  CHANNELS 3 Zrotation Xrotation Yrotation
                  End Site
                  {
                    OFFSET 1.62519 -0.234802 1.16502
                  }
                }
              }
              JOINT lMid1
              {
                OFFSET 8.24714 1.18213 3.41376
                CHANNELS 3 Zrotation Xrotation Yrotation
                JOINT lMid2
                {
                  OFFSET 3.10165 -0.590103 1.0647
                  CHANNELS 3 Zrotation Xrotation Yrotation
                  End Site
                  {
                    OFFSET 2.48547 -0.328903 0.83742
                  }
                }
              }
              JOINT lRing1
              {
                OFFSET 8.82822 0.546677 1.51678
                CHANNELS 3 Zrotation Xrotation Yrotation
                JOINT lRing2
                {
                  OFFSET 2.60934 -0.819778 -0.0198488
                  CHANNELS 3 Zrotation Xrotation Yrotation
                  End Site
                  {
                    OFFSET 2.33842 -0.294052 0.168128
                  }
                }
              }
              JOINT lPinky1
              {
                OFFSET 8.27202 -0.0477905 -0.4584
                CHANNELS 3 Zrotation Xrotation Yrotation
                JOINT lPinky2
                {
                  OFFSET 1.82734 -0.647385 -0.700984
                  CHANNELS 3 Zrotation Xrotation Yrotation
                  End Site
                  {
                    OFFSET 1.69225 -0.51767 -0.607171
                  }
                }
              }
            }
          }
        }
      }
    }
  }
  JOINT rButtock
  {
    OFFSET -8.77824 4.35084 1.2192
    CHANNELS 3 Zrotation Xrotation Yrotation
    JOINT rThigh
    {
      OFFSET 0 -1.70687 -2.19456
      CHANNELS 3 Zrotation Xrotation Yrotation
      JOINT rShin
      {
        OFFSET 0 -36.8199 0.73152
        CHANNELS 3 Zrotation Xrotation Yrotation
        JOINT rFoot
        {
          OFFSET 0.73152 -45.1104 -5.12064
          CHANNELS 3 Zrotation Xrotation Yrotation
          End Site
          {
            OFFSET -1.1221 -3.69964 12.103
          }
        }
      }
    }
  }
  JOINT lButtock
  {
    OFFSET 8.77824 4.35084 1.2192
    CHANNELS 3 Zrotation Xrotation Yrotation
    JOINT lThigh
    {
      OFFSET 0 -1.70687 -2.19456
      CHANNELS 3 Zrotation Xrotation Yrotation
      JOINT lShin
      {
        OFFSET 0 -36.8199 0.73152
        CHANNELS 3 Zrotation Xrotation Yrotation
        JOINT lFoot
        {
          OFFSET -0.73152 -45.1104 -5.12064
          CHANNELS 3 Zrotation Xrotation Yrotation
          End Site
          {
            OFFSET 1.1221 -3.69964 12.103
          }
        }
      }
    }
  }
}
MOTION
Frames:	7
Frame Time:	0.00833333
-3.66865 84.2564 37.9447 0.0 0.0 0.0 -1.24151 -0.00398118 -0.0340789 -0.342494 -0.00249262 -0.0593273 2.46274e-14 -1.59028e-15 1.11816e-16 7.35348e-14 3.18055e-15 3.57191e-16 -0.0 0.0 0.0 -0.0 0.0 0.0 1.22244e-14 2.01891e-17 1.98785e-16 2.58462e-13 3.66509e-16 2.5842e-15 4.41421e-12 -1.31098e-12 -2.54444e-14 5.05544e-11 1.39149e-12 3.14875e-13 1.19238e-10 1.73097e-13 6.20208e-13 2.05907e-10 3.02153e-13 1.06151e-12 1.19245e-10 1.76521e-13 6.17028e-13 7.73091 5.47488 0.417314 1.19239e-10 1.73241e-13 6.26569e-13 2.90554 0.965183 0.102902 1.19251e-10 1.74135e-13 6.20208e-13 10.2786 0.731801 0.0259123 1.19236e-10 1.7334e-13 6.26569e-13 2.22167 -0.733487 -0.20892 1.22269e-14 1.82478e-17 -9.93923e-17 2.53357e-13 5.59082e-17 9.93923e-16 4.41998e-12 1.33166e-12 -2.54444e-14 5.05411e-11 -1.26278e-12 3.18055e-13 1.19226e-10 1.5213e-13 6.17028e-13 2.05898e-10 2.60805e-13 1.06151e-12 1.19219e-10 1.56245e-13 6.26569e-13 -7.73091 5.47488 -0.417314 1.19225e-10 1.52567e-13 6.17028e-13 -2.90554 0.965183 -0.102902 1.19214e-10 1.52766e-13 6.15437e-13 -10.2786 0.731801 -0.0259123 1.19227e-10 1.51474e-13 6.10667e-13 -2.22167 -0.733487 0.20892 -2.03217e-16 0.0 -3.88251e-19 -0.453805 -1.92099 -0.0095277 -0.00915586 -2.07857 -0.0755544 -0.48749 3.99699 0.136658 2.03217e-16 0.0 3.88251e-19 -1.43725 -5.97115 0.129661 -0.00126443 5.25796 -0.0454156 0.507789 0.710741 -0.0722708
-4.30199 84.1925 37.3825 -2.7372 -0.2159 -1.0206 -0.462657 1.66861 0.07458 -0.395412 -1.80926 -0.0134445 -0.0285119 0.29403 -0.261195 1.02666 0.245669 -0.517373 -0.0 0.0 0.0 -0.0 0.0 0.0 1.9642e-14 -1.30521e-15 5.08998e-16 23.3094 7.43955 -3.51183 -5.93112 -3.15557 8.71109 0.0204958 3.17654 0.443957 1.38072e-10 -1.07779e-10 -5.80826e-12 2.38801e-10 -1.86476e-10 -1.07202e-11 1.38077e-10 -1.07774e-10 -5.81318e-12 7.73091 5.47488 0.417314 1.38071e-10 -1.07776e-10 -5.80546e-12 2.90554 0.965183 0.102902 1.38083e-10 -1.07776e-10 -5.80932e-12 10.2786 0.731801 0.0259123 1.38071e-10 -1.07778e-10 -5.80262e-12 2.22167 -0.733487 -0.20892 1.96596e-14 -1.30688e-15 2.08491e-16 -23.5975 6.70759 2.66921 5.52337 -2.83863 -8.2398 -7.65383e-07 0.0220985 -0.00310573 4.43135e-11 -1.78889e-10 1.38096e-12 7.63376e-11 -3.09821e-10 2.82595e-12 4.43073e-11 -1.78886e-10 1.38781e-12 -7.73091 5.47488 -0.417314 4.43128e-11 -1.78889e-10 1.38024e-12 -2.90554 0.965183 -0.102902 4.43042e-11 -1.78889e-10 1.37835e-12 -10.2786 0.731801 -0.0259123 4.43149e-11 -1.7889e-10 1.37199e-12 -2.22167 -0.733487 0.20892 -2.03217e-16 0.0 -3.88251e-19 -1.37295 0.463675 0.536268 -0.00363597 -1.4147 -0.0383547 -0.632321 -1.41166 -3.60954 2.03217e-16 0.0 3.88251e-19 1.51272 -6.33423 -1.22346 -0.00554365 10.1054 -0.158481 0.701252 -4.02469 2.45893
-4.29954 84.1922 37.3827 -2.7295 -0.2054 -1.0213 0.353729 3.43606 0.190633 -0.448492 -3.7173 0.0352776 -0.0575392 0.603161 -0.538324 2.1207 0.504325 -1.06582 -0.0 0.0 0.0 -0.0 0.0 0.0 2.93673e-14 -2.64957e-15 1.0343e-15 48.9718 15.2088 -7.42352 -11.1693 -6.24804 18.0028 -0.0116776 6.53309 0.917722 1.50719e-10 -2.1493e-10 -1.72507e-11 2.61009e-10 -3.71921e-10 -3.11201e-11 1.50722e-10 -2.14923e-10 -1.72575e-11 7.73091 5.47488 0.417314 1.50715e-10 -2.14923e-10 -1.72517e-11 2.90554 0.965183 0.102902 1.50727e-10 -2.14925e-10 -1.72529e-11 10.2786 0.731801 0.0259123 1.50719e-10 -2.14928e-10 -1.72458e-11 2.22167 -0.733487 -0.20892 2.94004e-14 -2.65093e-15 7.29912e-16 -49.2387 13.7519 5.61121 10.4812 -5.64138 -17.0105 1.15338e-06 0.0442402 -0.00621756 -4.55311e-11 -3.83115e-10 -3.49384e-12 -7.90319e-11 -6.63466e-10 -5.1042e-12 -4.55364e-11 -3.83113e-10 -3.48987e-12 -7.73091 5.47488 -0.417314 -4.55314e-11 -3.83114e-10 -3.49523e-12 -2.90554 0.965183 -0.102902 -4.55382e-11 -3.83114e-10 -3.49747e-12 -10.2786 0.731801 -0.0259123 -4.55299e-11 -3.83115e-10 -3.50557e-12 -2.22167 -0.733487 0.20892 -2.03217e-16 0.0 -3.88251e-19 -2.39405 2.984 1.11422 0.00126185 -0.712856 0.000940189 -1.55664 -7.07306 -7.62544 2.03217e-16 0.0 3.88251e-19 4.61273 -6.71412 -2.65543 0.0115132 15.2297 -0.283022 1.36475 -9.00185 5.18449
-4.30155 84.1912 37.38 -2.7354 -0.228 -1.0072 1.07597 5.01374 0.292924 -0.492543 -5.42278 0.0786933 -0.0774929 0.882016 -0.783667 3.09328 0.736768 -1.55223 -0.0 0.0 0.0 -0.0 0.0 0.0 3.44771e-14 -3.95601e-15 1.12942e-15 72.828 21.97 -11.2751 -14.9989 -8.59305 26.4124 -0.0879371 9.5273 1.34843 1.7574e-10 -3.23683e-10 -1.86652e-11 3.04589e-10 -5.60031e-10 -3.42835e-11 1.75742e-10 -3.23674e-10 -1.86736e-11 7.73091 5.47488 0.417314 1.75734e-10 -3.23673e-10 -1.86695e-11 2.90554 0.965183 0.102902 1.75747e-10 -3.23676e-10 -1.86684e-11 10.2786 0.731801 0.0259123 1.75742e-10 -3.2368e-10 -1.8661e-11 2.22167 -0.733487 -0.20892 3.45252e-14 -3.95715e-15 8.24257e-16 -72.7621 19.9424 8.4637 14.1863 -7.81285 -24.9359 4.89087e-06 0.0662953 -0.00931721 -1.05511e-10 -5.36972e-10 2.90881e-12 -1.82782e-10 -9.29984e-10 6.35482e-12 -1.05515e-10 -5.36971e-10 2.9103e-12 -7.73091 5.47488 -0.417314 -1.05511e-10 -5.36971e-10 2.90666e-12 -2.90554 0.965183 -0.102902 -1.05516e-10 -5.36972e-10 2.90419e-12 -10.2786 0.731801 -0.0259123 -1.0551e-10 -5.36972e-10 2.89463e-12 -2.22167 -0.733487 0.20892 -2.03217e-16 0.0 -3.88251e-19 -3.34792 5.23094 1.63461 0.0048185 -0.0869663 0.0359804 -3.06456 -12.0051 -11.3494 2.03217e-16 0.0 3.88251e-19 7.36096 -7.04817 -3.93567 0.0467534 19.8 -0.401347 2.36843 -13.3888 7.71399
-4.30357 84.1907 37.3773 -2.7321 -0.2399 -0.9935 1.57657 6.11706 0.359792 -0.520198 -6.62189 0.108444 -0.0804153 1.08525 -0.94947 3.75284 0.903907 -1.88344 -0.0 0.0 0.0 -0.0 0.0 0.0 2.80483e-14 -5.16762e-15 1.49089e-16 90.0666 26.5411 -14.2741 -17.2437 -9.9024 32.35 -0.168457 11.6178 1.65576 2.317e-10 -4.36439e-10 4.99029e-12 4.016e-10 -7.54803e-10 5.64469e-12 2.31701e-10 -4.3643e-10 4.98075e-12 7.73091 5.47488 0.417314 2.31693e-10 -4.36429e-10 4.98393e-12 2.90554 0.965183 0.102902 2.31706e-10 -4.36432e-10 4.98631e-12 10.2786 0.731801 0.0259123 2.31703e-10 -4.36436e-10 4.99347e-12 2.22167 -0.733487 -0.20892 2.81102e-14 -5.16879e-15 -1.49089e-16 -89.5705 24.1687 10.6595 16.4097 -9.07346 -30.5423 9.52547e-06 0.0881339 -0.0123864 -9.08287e-11 -5.64908e-10 3.75051e-11 -1.57485e-10 -9.78685e-10 6.62867e-11 -9.08327e-11 -5.64907e-10 3.75051e-11 -7.73091 5.47488 -0.417314 -9.08281e-11 -5.64907e-10 3.75019e-11 -2.90554 0.965183 -0.102902 -9.08324e-11 -5.64908e-10 3.74995e-11 -10.2786 0.731801 -0.0259123 -9.08275e-11 -5.64908e-10 3.74892e-11 -2.22167 -0.733487 0.20892 -2.03217e-16 0.0 -3.88251e-19 -4.03731 6.79648 2.00352 0.00684593 0.349028 0.0604146 -4.51126 -15.3403 -14.0708 2.03217e-16 0.0 3.88251e-19 9.26616 -7.27686 -4.83225 0.0834731 22.9853 -0.489736 3.3114 -16.4028 9.56616
-4.30477 84.1897 37.375 -2.7354 -0.244 -0.983 1.77321 6.55863 0.373106 -0.525276 -7.11797 0.118426 -0.058811 1.18715 -1.00256 3.96401 0.980383 -1.99554 -0.0 0.0 0.0 -0.0 0.0 0.0 -9.39348e-16 -6.96857e-15 -3.11727e-15 96.9766 28.3009 -15.559 -18.0391 -10.3287 34.6923 -0.206615 12.447 1.7795 3.74003e-10 -6.10844e-10 9.14627e-11 6.47976e-10 -1.0557e-09 1.53327e-10 3.74003e-10 -6.10837e-10 9.14528e-11 7.73091 5.47488 0.417314 3.73996e-10 -6.10837e-10 9.14562e-11 2.90554 0.965183 0.102902 3.74008e-10 -6.10838e-10 9.1458e-11 10.2786 0.731801 0.0259123 3.74005e-10 -6.10842e-10 9.14642e-11 2.22167 -0.733487 -0.20892 -8.56755e-16 -6.97017e-15 -3.39176e-15 -96.2728 25.7546 11.6211 17.2231 -9.51483 -32.7935 1.92146e-05 0.119573 -0.0168048 7.37711e-11 -3.78537e-10 1.33913e-10 1.26883e-10 -6.5683e-10 2.32645e-10 7.37671e-11 -3.78537e-10 1.33913e-10 -7.73091 5.47488 -0.417314 7.37721e-11 -3.78537e-10 1.33908e-10 -2.90554 0.965183 -0.102902 7.37677e-11 -3.78538e-10 1.33906e-10 -10.2786 0.731801 -0.0259123 7.37724e-11 -3.78537e-10 1.33896e-10 -2.22167 -0.733487 0.20892 -2.03217e-16 0.0 -3.88251e-19 -4.31161 7.41103 2.15416 0.0075416 0.519141 0.0700083 -5.17005 -16.6125 -15.1727 2.03217e-16 0.0 3.88251e-19 10.0084 -7.3618 -5.1903 0.100751 24.2327 -0.526964 3.74457 -17.5705 10.3353
-4.30114 84.1885 37.3735 -2.7184 -0.24 -0.9755 1.75403 6.52743 0.348123 -0.514975 -7.11163 0.11421 -0.0204576 1.21646 -0.975195 3.85419 0.992117 -1.9512 -0.0 0.0 0.0 -0.0 0.0 0.0 -4.57354e-14 -9.15608e-15 -7.97934e-15 96.2301 28.1321 -15.4569 -17.9574 -10.2849 34.4389 -0.202886 12.3756 1.76876 5.75929e-10 -8.26615e-10 2.21484e-10 9.9749e-10 -1.42778e-09 3.75718e-10 5.7593e-10 -8.26611e-10 2.21475e-10 7.73091 5.47488 0.417314 5.75923e-10 -8.26613e-10 2.21479e-10 2.90554 0.965183 0.102902 5.75936e-10 -8.26613e-10 2.21479e-10 10.2786 0.731801 0.0259123 5.7593e-10 -8.26614e-10 2.21484e-10 2.22167 -0.733487 -0.20892 -4.56277e-14 -9.15841e-15 -8.2185e-15 -95.5722 25.4959 11.6003 17.1706 -9.50256 -32.6242 3.66966e-05 0.157397 -0.0221208 3.43293e-10 -4.09003e-11 2.73408e-10 5.92568e-10 -7.34152e-11 4.73185e-10 3.43289e-10 -4.09019e-11 2.73408e-10 -7.73091 5.47488 -0.417314 3.43295e-10 -4.09018e-11 2.73401e-10 -2.90554 0.965183 -0.102902 3.4329e-10 -4.09018e-11 2.734e-10 -10.2786 0.731801 -0.0259123 3.43295e-10 -4.09009e-11 2.73391e-10 -2.22167 -0.733487 0.20892 -2.03217e-16 0.0 -3.88251e-19 -4.27921 7.34669 2.14702 0.00747359 0.499339 0.0689987 -5.09676 -16.4639 -15.0528 2.03217e-16 0.0 3.88251e-19 9.9235 -7.3453 -5.16315 0.0986717 24.0958 -0.524816 3.70928 -17.4422 10.2898
